<svg width="37" height="37" viewBox="0 0 37 37" fill="none" xmlns="http://www.w3.org/2000/svg">
<path d="M26.902 35.0728C25.1599 35.0728 23.3253 34.6566 21.4291 33.8549C19.5791 33.0687 17.7137 31.9895 15.8945 30.6791C14.0908 29.3533 12.3487 27.8733 10.6991 26.2545C9.06492 24.6049 7.58492 22.8628 6.2745 21.0745C4.94867 19.2245 3.88492 17.3745 3.1295 15.5862C2.32784 13.6745 1.927 11.8245 1.927 10.0824C1.927 8.87992 2.14284 7.73909 2.55909 6.67534C2.99075 5.58075 3.6845 4.56325 4.62492 3.6845C5.812 2.51284 7.16867 1.927 8.61784 1.927C9.21909 1.927 9.83575 2.06575 10.3599 2.31242C10.9612 2.58992 11.4699 3.00617 11.8399 3.56117L15.4166 8.60242C15.7403 9.0495 15.987 9.48117 16.1566 9.91284C16.357 10.3753 16.4649 10.8378 16.4649 11.2849C16.4649 11.8708 16.2953 12.4412 15.9716 12.9808C15.7403 13.397 15.3858 13.8441 14.9387 14.2912L13.8903 15.3858C13.9058 15.432 13.9212 15.4628 13.9366 15.4937C14.1216 15.8174 14.4916 16.3724 15.2008 17.2049C15.9562 18.0683 16.6653 18.8545 17.3745 19.5791C18.2841 20.4733 19.0395 21.1824 19.7487 21.7683C20.6274 22.5083 21.1978 22.8783 21.537 23.0478L21.5062 23.1249L22.6316 22.0149C23.1095 21.537 23.572 21.1824 24.0191 20.9512C24.867 20.427 25.9462 20.3345 27.0253 20.7816C27.4262 20.9512 27.8578 21.1824 28.3203 21.5062L33.4387 25.1445C34.0091 25.5299 34.4253 26.0233 34.672 26.6091C34.9033 27.1949 35.0112 27.7345 35.0112 28.2741C35.0112 29.0141 34.8416 29.7541 34.5178 30.4478C34.1941 31.1416 33.7933 31.7428 33.2845 32.2978C32.4058 33.2691 31.4499 33.9628 30.3399 34.4099C29.2762 34.8416 28.1199 35.0728 26.902 35.0728ZM8.61784 4.2395C7.76992 4.2395 6.98367 4.6095 6.22825 5.3495C5.51909 6.01242 5.02575 6.737 4.71742 7.52325C4.39367 8.32492 4.2395 9.17284 4.2395 10.0824C4.2395 11.5162 4.57867 13.0733 5.257 14.6766C5.95075 16.3108 6.922 18.0066 8.15534 19.7024C9.38867 21.3983 10.7916 23.0478 12.3333 24.6049C13.8749 26.1312 15.5399 27.5495 17.2512 28.7983C18.9162 30.0162 20.6274 31.0028 22.3233 31.712C24.9595 32.8374 27.4262 33.0995 29.4612 32.2516C30.2474 31.9278 30.9412 31.4345 31.5733 30.7253C31.9278 30.3399 32.2053 29.9237 32.4366 29.4303C32.6216 29.0449 32.7141 28.6441 32.7141 28.2433C32.7141 27.9966 32.6678 27.7499 32.5445 27.4724C32.4983 27.3799 32.4058 27.2103 32.1128 27.0099L26.9945 23.3716C26.6862 23.1558 26.4087 23.0016 26.1466 22.8937C25.8074 22.7549 25.6687 22.6162 25.1445 22.9399C24.8362 23.0941 24.5587 23.3253 24.2503 23.6337L23.0787 24.7899C22.4774 25.3758 21.5524 25.5145 20.8433 25.2524L20.427 25.0674C19.7949 24.7283 19.0549 24.2041 18.2378 23.5103C17.4978 22.8783 16.6962 22.1383 15.7249 21.1824C14.9695 20.4116 14.2141 19.5945 13.4278 18.6849C12.7033 17.837 12.1791 17.1124 11.8553 16.5112L11.6703 16.0487C11.5778 15.6941 11.547 15.4937 11.547 15.2778C11.547 14.7228 11.7474 14.2295 12.1328 13.8441L13.2891 12.6416C13.5974 12.3333 13.8287 12.0403 13.9828 11.7783C14.1062 11.5778 14.1524 11.4083 14.1524 11.2541C14.1524 11.1308 14.1062 10.9458 14.0291 10.7608C13.9212 10.5141 13.7516 10.2366 13.5358 9.94367L9.95909 4.887C9.80492 4.67117 9.61992 4.517 9.38867 4.40909C9.142 4.30117 8.87992 4.2395 8.61784 4.2395ZM21.5062 23.1403L21.2595 24.1887L21.6758 23.1095C21.5987 23.0941 21.537 23.1095 21.5062 23.1403Z" fill="white"/>
<path d="M28.5208 15.0313C27.8888 15.0313 27.3646 14.5072 27.3646 13.8751C27.3646 13.3201 26.8096 12.1638 25.8846 11.1772C24.975 10.2059 23.9729 9.6355 23.125 9.6355C22.4929 9.6355 21.9688 9.11133 21.9688 8.47925C21.9688 7.84716 22.4929 7.323 23.125 7.323C24.6204 7.323 26.1929 8.12466 27.565 9.58925C28.8446 10.9613 29.6771 12.6417 29.6771 13.8751C29.6771 14.5072 29.1529 15.0313 28.5208 15.0313Z" fill="white"/>
<path d="M33.9167 15.0312C33.2846 15.0312 32.7604 14.507 32.7604 13.8749C32.7604 8.55617 28.4438 4.2395 23.125 4.2395C22.4929 4.2395 21.9688 3.71534 21.9688 3.08325C21.9688 2.45117 22.4929 1.927 23.125 1.927C29.7079 1.927 35.0729 7.292 35.0729 13.8749C35.0729 14.507 34.5488 15.0312 33.9167 15.0312Z" fill="white"/>
</svg>
