<svg width="80" height="80" viewBox="0 0 80 80" fill="none" xmlns="http://www.w3.org/2000/svg">
<path d="M40.0001 75.8333C20.2334 75.8333 4.16675 59.7667 4.16675 40C4.16675 20.2333 20.2334 4.16667 40.0001 4.16667C59.7668 4.16667 75.8334 20.2333 75.8334 40C75.8334 59.7667 59.7668 75.8333 40.0001 75.8333ZM40.0001 9.16667C23.0001 9.16667 9.16675 23 9.16675 40C9.16675 57 23.0001 70.8333 40.0001 70.8333C57.0001 70.8333 70.8334 57 70.8334 40C70.8334 23 57.0001 9.16667 40.0001 9.16667Z" fill="white"/>
<path d="M52.3667 53.1C51.9334 53.1 51.5 53 51.1 52.7333L40.7667 46.5667C38.2 45.0333 36.3 41.6667 36.3 38.7V25.0333C36.3 23.6667 37.4334 22.5333 38.8 22.5333C40.1667 22.5333 41.3 23.6667 41.3 25.0333V38.7C41.3 39.9 42.3 41.6667 43.3334 42.2667L53.6667 48.4333C54.8667 49.1333 55.2334 50.6667 54.5334 51.8667C54.0334 52.6667 53.2 53.1 52.3667 53.1Z" fill="white"/>
</svg>
