<svg width="17" height="17" viewBox="0 0 17 17" fill="none" xmlns="http://www.w3.org/2000/svg">
<path d="M8.50008 16.1147C4.29966 16.1147 0.885498 12.7005 0.885498 8.50008C0.885498 4.29966 4.29966 0.885498 8.50008 0.885498C12.7005 0.885498 16.1147 4.29966 16.1147 8.50008C16.1147 12.7005 12.7005 16.1147 8.50008 16.1147ZM8.50008 1.948C4.88758 1.948 1.948 4.88758 1.948 8.50008C1.948 12.1126 4.88758 15.0522 8.50008 15.0522C12.1126 15.0522 15.0522 12.1126 15.0522 8.50008C15.0522 4.88758 12.1126 1.948 8.50008 1.948Z" fill="white"/>
<path d="M8.67025 11.8647C6.81441 11.8647 5.30566 10.3559 5.30566 8.50008C5.30566 6.64425 6.81441 5.1355 8.67025 5.1355C9.48483 5.1355 10.2782 5.433 10.8873 5.97842C11.1069 6.16967 11.1282 6.50966 10.9369 6.72925C10.7457 6.94883 10.4057 6.97009 10.1861 6.77884C9.76817 6.4105 9.22983 6.20509 8.67025 6.20509C7.40233 6.20509 6.36816 7.23925 6.36816 8.50717C6.36816 9.77509 7.40233 10.8093 8.67025 10.8093C9.22275 10.8093 9.76817 10.6038 10.1861 10.2355C10.4057 10.0443 10.7457 10.0655 10.9369 10.2851C11.1282 10.5047 11.1069 10.8447 10.8873 11.0359C10.2711 11.5672 9.48483 11.8647 8.67025 11.8647Z" fill="white"/>
</svg>
