<svg width="37" height="37" viewBox="0 0 37 37" fill="none" xmlns="http://www.w3.org/2000/svg">
<path d="M18.4999 21.8453C15.2162 21.8453 12.5337 19.1782 12.5337 15.8791C12.5337 12.5799 15.2162 9.92822 18.4999 9.92822C21.7837 9.92822 24.4662 12.5953 24.4662 15.8945C24.4662 19.1936 21.7837 21.8453 18.4999 21.8453ZM18.4999 12.2407C16.4958 12.2407 14.8462 13.8749 14.8462 15.8945C14.8462 17.9141 16.4804 19.5482 18.4999 19.5482C20.5195 19.5482 22.1537 17.9141 22.1537 15.8945C22.1537 13.8749 20.5041 12.2407 18.4999 12.2407Z" fill="white"/>
<path d="M18.5001 35.0883C16.2184 35.0883 13.9213 34.2249 12.133 32.5137C7.58509 28.1353 2.55926 21.1516 4.45551 12.842C6.16676 5.30325 12.7497 1.927 18.5001 1.927C18.5001 1.927 18.5001 1.927 18.5155 1.927C24.2659 1.927 30.8488 5.30325 32.5601 12.8574C34.4409 21.167 29.4151 28.1353 24.8672 32.5137C23.0788 34.2249 20.7818 35.0883 18.5001 35.0883ZM18.5001 4.2395C14.0138 4.2395 8.24801 6.62909 6.72176 13.3508C5.05676 20.612 9.62009 26.8712 13.7518 30.8333C16.4188 33.4078 20.5968 33.4078 23.2638 30.8333C27.3801 26.8712 31.9434 20.612 30.3093 13.3508C28.7676 6.62909 22.9863 4.2395 18.5001 4.2395Z" fill="white"/>
</svg>
