<svg width="149" height="25" viewBox="0 0 149 25" fill="none" xmlns="http://www.w3.org/2000/svg">
<path d="M12.5 25C19.4036 25 25 19.4036 25 12.5C25 5.59644 19.4036 0 12.5 0C5.59644 0 0 5.59644 0 12.5C0 19.4036 5.59644 25 12.5 25Z" fill="#E35F21"/>
<path d="M8.05163 5.84497L9.00656 16.3885C8.78072 16.7886 8.55242 17.1912 8.32657 17.5913C8.05409 17.2354 7.78406 16.8794 7.51157 16.5235L6.55664 5.97998C6.55664 5.95789 6.55664 5.9358 6.55664 5.9137L8.0369 5.77869C8.04427 5.79833 8.04918 5.82042 8.05163 5.84251V5.84497Z" fill="#231F20"/>
<path d="M9.84393 4.54634L9.89058 5.05694C9.91758 5.36134 9.69173 5.63137 9.38733 5.65838L5.21412 6.03642C4.90972 6.06342 4.63724 5.83758 4.61023 5.53318L4.56359 5.02257C4.53659 4.71818 4.76243 4.44569 5.06683 4.41869L9.24004 4.04064C9.54444 4.01364 9.81693 4.23948 9.84393 4.54388V4.54634Z" fill="#231F20"/>
<path d="M17.3676 16.7469L7.92387 21.5314C7.46727 21.4675 7.01068 21.4062 6.55408 21.3423C6.78483 20.9594 7.01559 20.574 7.24634 20.191L16.6901 15.4066C16.7097 15.3967 16.7318 15.3894 16.7514 15.3845L17.4241 16.7101C17.4093 16.7248 17.3897 16.7371 17.3701 16.7469H17.3676Z" fill="#231F20"/>
<path d="M19.2359 17.9325L18.7793 18.1633C18.5068 18.3008 18.1705 18.1903 18.033 17.9178L16.1403 14.1791C16.0029 13.9066 16.1109 13.5703 16.3834 13.4328L16.84 13.2021C17.1125 13.0646 17.4488 13.1751 17.5887 13.4476L19.4814 17.1863C19.6188 17.4588 19.5084 17.7951 19.2359 17.935V17.9325Z" fill="#231F20"/>
<path d="M20.5936 12.4803L10.9977 8.01006C10.7645 7.61238 10.5313 7.2147 10.3005 6.81701C10.7449 6.76055 11.1892 6.70409 11.6335 6.65009L21.2294 11.1203C21.2491 11.1302 21.2687 11.14 21.2859 11.1547L20.6575 12.5024C20.6354 12.4999 20.6157 12.4926 20.5961 12.4828L20.5936 12.4803Z" fill="#231F20"/>
<path d="M21.8539 9.92703L20.0853 13.7232C19.9553 14.0022 20.0761 14.3337 20.3551 14.4637L20.8157 14.6783C21.0947 14.8082 21.4262 14.6874 21.5562 14.4085L23.3247 10.6123C23.4547 10.3333 23.3339 10.0018 23.0549 9.87183L22.5943 9.65724C22.3154 9.52727 21.9838 9.64806 21.8539 9.92703Z" fill="#231F20"/>
<path d="M37.3636 19H32.4347V4.45455H37.4631C38.9072 4.45455 40.1477 4.74574 41.1847 5.32812C42.2263 5.90578 43.0265 6.73674 43.5852 7.82102C44.1439 8.9053 44.4233 10.2027 44.4233 11.7131C44.4233 13.2282 44.1416 14.5303 43.5781 15.6193C43.0194 16.7083 42.2121 17.544 41.1562 18.1264C40.1051 18.7088 38.8409 19 37.3636 19ZM35.0696 16.7202H37.2358C38.2491 16.7202 39.0942 16.5355 39.7713 16.1662C40.4484 15.7921 40.9574 15.2358 41.2983 14.4972C41.6392 13.7538 41.8097 12.8258 41.8097 11.7131C41.8097 10.6004 41.6392 9.67708 41.2983 8.94318C40.9574 8.20455 40.4531 7.65294 39.7855 7.28835C39.1226 6.91903 38.2988 6.73438 37.3139 6.73438H35.0696V16.7202ZM46.8132 19V8.09091H49.3842V19H46.8132ZM48.1058 6.54261C47.6986 6.54261 47.3482 6.40767 47.0547 6.13778C46.7611 5.86316 46.6143 5.53409 46.6143 5.15057C46.6143 4.76231 46.7611 4.43324 47.0547 4.16335C47.3482 3.88873 47.6986 3.75142 48.1058 3.75142C48.5178 3.75142 48.8681 3.88873 49.157 4.16335C49.4505 4.43324 49.5973 4.76231 49.5973 5.15057C49.5973 5.53409 49.4505 5.86316 49.157 6.13778C48.8681 6.40767 48.5178 6.54261 48.1058 6.54261ZM54.5991 4.45455V19H52.0281V4.45455H54.5991ZM61.2912 19.1918C60.4342 19.1918 59.6671 18.9716 58.9901 18.5312C58.313 18.0909 57.7779 17.4517 57.3849 16.6136C56.992 15.7756 56.7955 14.7576 56.7955 13.5597C56.7955 12.3475 56.9943 11.3248 57.392 10.4915C57.7945 9.65341 58.3366 9.02131 59.0185 8.59517C59.7003 8.1643 60.4602 7.94886 61.2983 7.94886C61.9375 7.94886 62.4631 8.05777 62.875 8.27557C63.2869 8.48864 63.6136 8.74669 63.8551 9.04972C64.0966 9.34801 64.2836 9.62973 64.4162 9.89489H64.5227V4.45455H67.1009V19H64.5724V17.2812H64.4162C64.2836 17.5464 64.0919 17.8281 63.8409 18.1264C63.59 18.42 63.2585 18.6709 62.8466 18.8793C62.4347 19.0876 61.9162 19.1918 61.2912 19.1918ZM62.0085 17.0824C62.553 17.0824 63.017 16.9356 63.4006 16.642C63.7841 16.3437 64.0753 15.9295 64.2741 15.3991C64.473 14.8688 64.5724 14.2509 64.5724 13.5455C64.5724 12.84 64.473 12.2268 64.2741 11.706C64.08 11.1851 63.7912 10.7803 63.4077 10.4915C63.0289 10.2027 62.5625 10.0582 62.0085 10.0582C61.4356 10.0582 60.9574 10.2074 60.5739 10.5057C60.1903 10.804 59.9015 11.2159 59.7074 11.7415C59.5133 12.267 59.4162 12.8684 59.4162 13.5455C59.4162 14.2273 59.5133 14.8357 59.7074 15.3707C59.9063 15.901 60.1974 16.3201 60.581 16.6278C60.9692 16.9309 61.4451 17.0824 62.0085 17.0824ZM74.5991 19.2131C73.5337 19.2131 72.6104 18.9787 71.8292 18.5099C71.0479 18.0412 70.4419 17.3854 70.011 16.5426C69.5849 15.6998 69.3718 14.715 69.3718 13.5881C69.3718 12.4612 69.5849 11.474 70.011 10.6264C70.4419 9.77888 71.0479 9.12074 71.8292 8.65199C72.6104 8.18324 73.5337 7.94886 74.5991 7.94886C75.6644 7.94886 76.5877 8.18324 77.369 8.65199C78.1502 9.12074 78.7539 9.77888 79.18 10.6264C79.6109 11.474 79.8263 12.4612 79.8263 13.5881C79.8263 14.715 79.6109 15.6998 79.18 16.5426C78.7539 17.3854 78.1502 18.0412 77.369 18.5099C76.5877 18.9787 75.6644 19.2131 74.5991 19.2131ZM74.6133 17.1534C75.1909 17.1534 75.6739 16.9948 76.0621 16.6776C76.4504 16.3556 76.7392 15.9247 76.9286 15.3849C77.1228 14.8452 77.2198 14.2438 77.2198 13.581C77.2198 12.9134 77.1228 12.3097 76.9286 11.7699C76.7392 11.2254 76.4504 10.7921 76.0621 10.4702C75.6739 10.1482 75.1909 9.98722 74.6133 9.98722C74.0214 9.98722 73.529 10.1482 73.136 10.4702C72.7478 10.7921 72.4566 11.2254 72.2624 11.7699C72.073 12.3097 71.9783 12.9134 71.9783 13.581C71.9783 14.2438 72.073 14.8452 72.2624 15.3849C72.4566 15.9247 72.7478 16.3556 73.136 16.6776C73.529 16.9948 74.0214 17.1534 74.6133 17.1534ZM82.1222 19V4.45455H87.6903C88.7415 4.45455 89.6151 4.62026 90.3111 4.9517C91.0118 5.27841 91.535 5.72585 91.8807 6.29403C92.2311 6.86222 92.4062 7.50616 92.4062 8.22585C92.4062 8.81771 92.2926 9.32434 92.0653 9.74574C91.8381 10.1624 91.5327 10.5009 91.1491 10.7614C90.7656 11.0218 90.3371 11.2088 89.8636 11.3224V11.4645C90.3797 11.4929 90.8745 11.6515 91.348 11.9403C91.8262 12.2244 92.2169 12.6269 92.5199 13.1477C92.8229 13.6686 92.9744 14.2983 92.9744 15.0369C92.9744 15.7898 92.7921 16.4669 92.4276 17.0682C92.063 17.6648 91.5137 18.1359 90.7798 18.4815C90.0459 18.8272 89.1226 19 88.0099 19H82.1222ZM84.7571 16.7983H87.5909C88.5473 16.7983 89.2363 16.616 89.6577 16.2514C90.0838 15.8821 90.2969 15.4086 90.2969 14.831C90.2969 14.4001 90.1903 14.0118 89.9773 13.6662C89.7642 13.3158 89.4612 13.0412 89.0682 12.8423C88.6752 12.6387 88.2064 12.5369 87.6619 12.5369H84.7571V16.7983ZM84.7571 10.6406H87.3636C87.8182 10.6406 88.2277 10.5578 88.5923 10.392C88.9569 10.2216 89.2434 9.98248 89.4517 9.67472C89.6648 9.36222 89.7713 8.9929 89.7713 8.56676C89.7713 8.00331 89.5724 7.5393 89.1747 7.17472C88.7817 6.81013 88.197 6.62784 87.4205 6.62784H84.7571V10.6406ZM102.106 14.4119V8.09091H104.677V19H102.184V17.0611H102.071C101.824 17.6719 101.42 18.1714 100.856 18.5597C100.297 18.9479 99.6085 19.142 98.7894 19.142C98.0745 19.142 97.4424 18.9834 96.8931 18.6662C96.3486 18.3442 95.9225 17.8778 95.6147 17.267C95.3069 16.6515 95.1531 15.9081 95.1531 15.0369V8.09091H97.7241V14.6392C97.7241 15.3305 97.9135 15.8797 98.2923 16.2869C98.671 16.6941 99.1682 16.8977 99.7837 16.8977C100.163 16.8977 100.529 16.8054 100.885 16.6207C101.24 16.4361 101.531 16.1615 101.758 15.7969C101.99 15.4276 102.106 14.9659 102.106 14.4119ZM107.321 19V8.09091H109.892V19H107.321ZM108.614 6.54261C108.206 6.54261 107.856 6.40767 107.562 6.13778C107.269 5.86316 107.122 5.53409 107.122 5.15057C107.122 4.76231 107.269 4.43324 107.562 4.16335C107.856 3.88873 108.206 3.75142 108.614 3.75142C109.026 3.75142 109.376 3.88873 109.665 4.16335C109.958 4.43324 110.105 4.76231 110.105 5.15057C110.105 5.53409 109.958 5.86316 109.665 6.13778C109.376 6.40767 109.026 6.54261 108.614 6.54261ZM115.107 4.45455V19H112.536V4.45455H115.107ZM121.799 19.1918C120.942 19.1918 120.175 18.9716 119.498 18.5312C118.821 18.0909 118.286 17.4517 117.893 16.6136C117.5 15.7756 117.303 14.7576 117.303 13.5597C117.303 12.3475 117.502 11.3248 117.9 10.4915C118.302 9.65341 118.844 9.02131 119.526 8.59517C120.208 8.1643 120.968 7.94886 121.806 7.94886C122.445 7.94886 122.971 8.05777 123.383 8.27557C123.795 8.48864 124.121 8.74669 124.363 9.04972C124.604 9.34801 124.791 9.62973 124.924 9.89489H125.031V4.45455H127.609V19H125.08V17.2812H124.924C124.791 17.5464 124.6 17.8281 124.349 18.1264C124.098 18.42 123.766 18.6709 123.354 18.8793C122.942 19.0876 122.424 19.1918 121.799 19.1918ZM122.516 17.0824C123.061 17.0824 123.525 16.9356 123.908 16.642C124.292 16.3437 124.583 15.9295 124.782 15.3991C124.981 14.8688 125.08 14.2509 125.08 13.5455C125.08 12.84 124.981 12.2268 124.782 11.706C124.588 11.1851 124.299 10.7803 123.915 10.4915C123.537 10.2027 123.07 10.0582 122.516 10.0582C121.943 10.0582 121.465 10.2074 121.082 10.5057C120.698 10.804 120.409 11.2159 120.215 11.7415C120.021 12.267 119.924 12.8684 119.924 13.5455C119.924 14.2273 120.021 14.8357 120.215 15.3707C120.414 15.901 120.705 16.3201 121.089 16.6278C121.477 16.9309 121.953 17.0824 122.516 17.0824ZM135.178 19.2131C134.084 19.2131 133.14 18.9858 132.344 18.5312C131.553 18.072 130.945 17.4233 130.519 16.5852C130.093 15.7424 129.88 14.7505 129.88 13.6094C129.88 12.4872 130.093 11.5024 130.519 10.6548C130.95 9.80256 131.551 9.13968 132.323 8.66619C133.095 8.18797 134.001 7.94886 135.043 7.94886C135.715 7.94886 136.35 8.05777 136.946 8.27557C137.548 8.48864 138.078 8.82008 138.537 9.26989C139.001 9.7197 139.366 10.2926 139.631 10.9886C139.896 11.6799 140.029 12.5038 140.029 13.4602V14.2486H131.087V12.5156H137.564C137.56 12.0232 137.453 11.5852 137.245 11.2017C137.036 10.8134 136.745 10.508 136.371 10.2855C136.002 10.063 135.571 9.9517 135.078 9.9517C134.553 9.9517 134.091 10.0795 133.694 10.3352C133.296 10.5862 132.986 10.9176 132.763 11.3295C132.545 11.7367 132.434 12.1842 132.429 12.6719V14.1847C132.429 14.8191 132.545 15.3636 132.777 15.8182C133.009 16.268 133.334 16.6136 133.75 16.8551C134.167 17.0919 134.655 17.2102 135.213 17.2102C135.587 17.2102 135.926 17.1581 136.229 17.054C136.532 16.9451 136.795 16.7865 137.017 16.5781C137.24 16.3698 137.408 16.1117 137.522 15.804L139.922 16.0739C139.771 16.7083 139.482 17.2623 139.056 17.7358C138.634 18.2045 138.095 18.5691 137.436 18.8295C136.778 19.0852 136.025 19.2131 135.178 19.2131ZM142.204 19V8.09091H144.697V9.90909H144.81C145.009 9.27936 145.35 8.79403 145.833 8.45312C146.321 8.10748 146.877 7.93466 147.502 7.93466C147.644 7.93466 147.803 7.94176 147.978 7.95597C148.158 7.96544 148.307 7.98201 148.425 8.00568V10.3707C148.317 10.3329 148.144 10.2997 147.907 10.2713C147.675 10.2382 147.45 10.2216 147.232 10.2216C146.763 10.2216 146.342 10.3234 145.968 10.527C145.599 10.7259 145.308 11.0028 145.094 11.358C144.881 11.7131 144.775 12.1226 144.775 12.5866V19H142.204Z" fill="white"/>
</svg>
