<svg width="80" height="80" viewBox="0 0 80 80" fill="none" xmlns="http://www.w3.org/2000/svg">
<path d="M40.0001 55.8333C38.6667 55.8333 37.3334 55.7333 36.0667 55.5C29.0001 54.4666 22.5667 50.4 18.5001 44.3667C15.6667 40.1 14.1667 35.1333 14.1667 30C14.1667 15.7667 25.7667 4.16667 40.0001 4.16667C54.2334 4.16667 65.8334 15.7667 65.8334 30C65.8334 35.1333 64.3334 40.1 61.5001 44.3667C57.4001 50.4333 50.9667 54.4667 43.8334 55.5333C42.6667 55.7333 41.3334 55.8333 40.0001 55.8333ZM40.0001 9.16667C28.5001 9.16667 19.1667 18.5 19.1667 30C19.1667 34.1667 20.3667 38.1667 22.6334 41.5667C25.9334 46.4333 31.1001 49.7 36.8334 50.5333C38.9667 50.9 41.0667 50.9 43.0334 50.5333C48.8667 49.7 54.0334 46.4 57.3334 41.5333C59.6001 38.1333 60.8001 34.1333 60.8001 29.9666C60.8334 18.5 51.5001 9.16667 40.0001 9.16667Z" fill="white"/>
<path d="M21.5661 75.2999C21.0995 75.2999 20.6661 75.2333 20.1995 75.1333C18.0328 74.6333 16.3661 72.9665 15.8661 70.7999L14.6995 65.8999C14.6328 65.5999 14.3995 65.3665 14.0661 65.2665L8.56614 63.9666C6.49947 63.4666 4.86614 61.9332 4.29947 59.8999C3.73281 57.8666 4.29947 55.6666 5.79947 54.1666L18.7995 41.1666C19.3328 40.6332 20.0661 40.3666 20.7995 40.4332C21.5328 40.4999 22.1995 40.8999 22.6328 41.5332C25.9328 46.3999 31.0995 49.6999 36.8661 50.5332C38.9995 50.8999 41.0995 50.8999 43.0661 50.5332C48.8995 49.6999 54.0661 46.3999 57.3661 41.5332C57.7661 40.8999 58.4661 40.4999 59.1995 40.4332C59.9328 40.3666 60.6661 40.6332 61.1995 41.1666L74.1995 54.1666C75.6995 55.6666 76.2661 57.8666 75.6995 59.8999C75.1328 61.9332 73.4661 63.4999 71.4328 63.9666L65.9328 65.2665C65.6328 65.3332 65.3995 65.5665 65.2995 65.8999L64.1328 70.7999C63.6328 72.9665 61.9661 74.6333 59.7995 75.1333C57.6328 75.6666 55.3995 74.8999 53.9995 73.1999L39.9995 57.0999L25.9995 73.2332C24.8661 74.5666 23.2661 75.2999 21.5661 75.2999ZM20.2995 46.7666L9.33281 57.7332C9.03281 58.0333 9.06614 58.3666 9.13281 58.5666C9.16614 58.7332 9.33281 59.0665 9.73281 59.1332L15.2328 60.4332C17.3995 60.9332 19.0661 62.5999 19.5661 64.7665L20.7328 69.6665C20.8328 70.0999 21.1661 70.2332 21.3661 70.2999C21.5661 70.3332 21.8995 70.3666 22.1995 70.0333L34.9661 55.3332C29.2995 54.2332 24.0995 51.1999 20.2995 46.7666ZM45.0328 55.2999L57.7995 69.9665C58.0995 70.3332 58.4661 70.3332 58.6661 70.2665C58.8661 70.2332 59.1661 70.0666 59.2995 69.6333L60.4661 64.7333C60.9661 62.5666 62.6328 60.8999 64.7995 60.3999L70.2995 59.0999C70.6995 58.9999 70.8661 58.6999 70.8995 58.5332C70.9661 58.3666 70.9995 57.9999 70.6995 57.6999L59.7328 46.7332C55.8995 51.1665 50.7328 54.1999 45.0328 55.2999Z" fill="white"/>
<path d="M46.3004 42.9667C45.4337 42.9667 44.4004 42.7334 43.1671 42L40.0004 40.1L36.8337 41.9667C33.9337 43.7 32.0337 42.7 31.3337 42.2C30.6337 41.7 29.1337 40.2 29.9004 36.9L30.7004 33.4667L28.0337 31C26.5671 29.5333 26.0337 27.7667 26.5337 26.1667C27.0337 24.5667 28.5004 23.4333 30.5671 23.1L34.1337 22.5L35.8337 18.7667C36.8004 16.8667 38.3004 15.8 40.0004 15.8C41.7004 15.8 43.2337 16.9001 44.1671 18.8001L46.1337 22.7334L49.4337 23.1333C51.4671 23.4667 52.9337 24.6 53.4671 26.2C53.9671 27.8 53.4337 29.5667 51.9671 31.0333L49.2004 33.8L50.0671 36.9C50.8337 40.2 49.3337 41.7 48.6337 42.2C48.2671 42.5 47.4671 42.9667 46.3004 42.9667ZM32.0337 27.9667L34.3337 30.2666C35.4004 31.3333 35.9337 33.1334 35.6004 34.6L34.9671 37.2666L37.6337 35.7C39.0671 34.8666 41.0004 34.8666 42.4004 35.7L45.0671 37.2666L44.4671 34.6C44.1337 33.1 44.6337 31.3333 45.7004 30.2666L48.0004 27.9667L45.1004 27.4666C43.7004 27.2333 42.3004 26.2 41.6671 24.9334L40.0004 21.6667L38.3337 25C37.7337 26.2333 36.3337 27.3 34.9337 27.5334L32.0337 27.9667Z" fill="white"/>
</svg>
