<svg width="80" height="80" viewBox="0 0 80 80" fill="none" xmlns="http://www.w3.org/2000/svg">
<path d="M61.5667 75.8333H48.2334C40.1667 75.8333 35.7334 71.4 35.7334 63.3333V16.6667C35.7334 8.59999 40.1667 4.16666 48.2334 4.16666H61.5667C69.6334 4.16666 74.0667 8.59999 74.0667 16.6667V63.3333C74.0667 71.4 69.6001 75.8333 61.5667 75.8333ZM48.2334 9.16666C42.9667 9.16666 40.7334 11.4 40.7334 16.6667V63.3333C40.7334 68.6 42.9667 70.8333 48.2334 70.8333H61.5667C66.8334 70.8333 69.0667 68.6 69.0667 63.3333V16.6667C69.0667 11.4 66.8334 9.16666 61.5667 9.16666H48.2334Z" fill="white"/>
<path d="M54.9001 22.5H38.2334C36.8667 22.5 35.7334 21.3667 35.7334 20C35.7334 18.6333 36.8667 17.5 38.2334 17.5H54.9001C56.2667 17.5 57.4001 18.6333 57.4001 20C57.4001 21.3667 56.2667 22.5 54.9001 22.5Z" fill="white"/>
<path d="M51.5667 62.5H38.2334C36.8667 62.5 35.7334 61.3667 35.7334 60C35.7334 58.6333 36.8667 57.5 38.2334 57.5H51.5667C52.9334 57.5 54.0667 58.6333 54.0667 60C54.0667 61.3667 52.9334 62.5 51.5667 62.5Z" fill="white"/>
<path d="M54.9 49.1667C54.8667 49.1667 54.8667 49.1667 54.9 49.1667L38.2 49C36.8334 49 35.7 47.8667 35.7334 46.4667C35.7334 45.1 36.8667 44 38.2334 44C38.2334 44 38.2334 44 38.2667 44L54.9334 44.1667C56.3 44.1667 57.4334 45.3 57.4 46.7C57.3667 48.0667 56.2667 49.1667 54.9 49.1667Z" fill="white"/>
<path d="M48.2334 35.8333H38.2334C36.8667 35.8333 35.7334 34.7 35.7334 33.3333C35.7334 31.9667 36.8667 30.8333 38.2334 30.8333H48.2334C49.6001 30.8333 50.7334 31.9667 50.7334 33.3333C50.7334 34.7 49.6001 35.8333 48.2334 35.8333Z" fill="white"/>
<path d="M18.3 75.7333C15.2667 75.7333 12.4 73.8667 10.4334 70.6L7.70002 66.0667C6.70002 64.4 5.93335 61.6667 5.93335 59.7333V16.5C5.93335 9.69999 11.4667 4.16666 18.2667 4.16666C25.0667 4.16666 30.6 9.69999 30.6 16.5V59.7C30.6 61.6333 29.8333 64.3667 28.8333 66.0333L26.1 70.5667C24.2 73.8667 21.3333 75.7333 18.3 75.7333ZM18.3 9.16666C14.2667 9.16666 10.9667 12.4667 10.9667 16.5V59.7C10.9667 60.7333 11.4667 62.5667 12 63.4667L14.7333 68C15.7667 69.7333 17.0667 70.7 18.3 70.7C19.5333 70.7 20.8333 69.7 21.8667 68L24.6 63.4667C25.1334 62.5667 25.6333 60.7333 25.6333 59.7V16.5C25.6333 12.4667 22.3333 9.16666 18.3 9.16666Z" fill="white"/>
<path d="M28.1334 25.8333H8.43335C7.06668 25.8333 5.93335 24.7 5.93335 23.3333C5.93335 21.9667 7.06668 20.8333 8.43335 20.8333H28.1334C29.5 20.8333 30.6334 21.9667 30.6334 23.3333C30.6334 24.7 29.5 25.8333 28.1334 25.8333Z" fill="white"/>
</svg>
