<svg width="80" height="80" viewBox="0 0 80 80" fill="none" xmlns="http://www.w3.org/2000/svg">
<path d="M39.9999 75.4333C37.7666 75.4333 35.4999 74.9333 33.7332 73.9L15.3999 63.3333C7.93322 58.3 7.46655 57.5333 7.46655 49.6333V30.3667C7.46655 22.4667 7.89989 21.7 15.2332 16.7333L33.6999 6.06666C37.1999 4.03332 42.6999 4.03332 46.1999 6.06666L64.5999 16.6667C72.0666 21.7 72.5332 22.4667 72.5332 30.3667V49.6C72.5332 57.5 72.0999 58.2667 64.7666 63.2333L46.2999 73.9C44.4999 74.9333 42.2332 75.4333 39.9999 75.4333ZM39.9999 9.56666C38.5999 9.56666 37.2332 9.83332 36.2666 10.4L17.9332 21C12.4999 24.6667 12.4999 24.6667 12.4999 30.3667V49.6C12.4999 55.3 12.4999 55.3 18.0666 59.0667L36.2666 69.5667C38.2332 70.7 41.7999 70.7 43.7666 69.5667L62.0999 58.9667C67.4999 55.3 67.4999 55.3 67.4999 49.6V30.3667C67.4999 24.6667 67.4999 24.6667 61.9332 20.9L43.7332 10.4C42.7666 9.83332 41.3999 9.56666 39.9999 9.56666Z" fill="white"/>
<path d="M40 52.5C33.1 52.5 27.5 46.9 27.5 40C27.5 33.1 33.1 27.5 40 27.5C46.9 27.5 52.5 33.1 52.5 40C52.5 46.9 46.9 52.5 40 52.5ZM40 32.5C35.8667 32.5 32.5 35.8667 32.5 40C32.5 44.1333 35.8667 47.5 40 47.5C44.1333 47.5 47.5 44.1333 47.5 40C47.5 35.8667 44.1333 32.5 40 32.5Z" fill="white"/>
</svg>
