<svg width="37" height="37" viewBox="0 0 37 37" fill="none" xmlns="http://www.w3.org/2000/svg">
<path d="M26.2083 32.7603H10.7916C5.1645 32.7603 1.927 29.5228 1.927 23.8958V13.1041C1.927 7.477 5.1645 4.2395 10.7916 4.2395H26.2083C31.8353 4.2395 35.0728 7.477 35.0728 13.1041V23.8958C35.0728 29.5228 31.8353 32.7603 26.2083 32.7603ZM10.7916 6.552C6.38242 6.552 4.2395 8.69492 4.2395 13.1041V23.8958C4.2395 28.3049 6.38242 30.4478 10.7916 30.4478H26.2083C30.6174 30.4478 32.7603 28.3049 32.7603 23.8958V13.1041C32.7603 8.69492 30.6174 6.552 26.2083 6.552H10.7916Z" fill="white"/>
<path d="M18.4996 19.8412C17.2046 19.8412 15.8942 19.4404 14.8921 18.6233L10.0667 14.7691C9.57337 14.3683 9.48087 13.6437 9.88171 13.1504C10.2825 12.657 11.0071 12.5645 11.5005 12.9654L16.3259 16.8195C17.4975 17.76 19.4863 17.76 20.6579 16.8195L25.4834 12.9654C25.9767 12.5645 26.7167 12.6416 27.1021 13.1504C27.503 13.6437 27.4259 14.3837 26.9171 14.7691L22.0917 18.6233C21.105 19.4404 19.7946 19.8412 18.4996 19.8412Z" fill="white"/>
</svg>
