<svg width="80" height="80" viewBox="0 0 80 80" fill="none" xmlns="http://www.w3.org/2000/svg">
<path d="M39.9999 42.5C29.4333 42.5 20.8333 33.9 20.8333 23.3333C20.8333 12.7667 29.4333 4.16667 39.9999 4.16667C50.5666 4.16667 59.1666 12.7667 59.1666 23.3333C59.1666 33.9 50.5666 42.5 39.9999 42.5ZM39.9999 9.16667C32.1999 9.16667 25.8333 15.5333 25.8333 23.3333C25.8333 31.1333 32.1999 37.5 39.9999 37.5C47.7999 37.5 54.1666 31.1333 54.1666 23.3333C54.1666 15.5333 47.7999 9.16667 39.9999 9.16667Z" fill="white"/>
<path d="M68.6338 75.8333C67.2672 75.8333 66.1338 74.7 66.1338 73.3333C66.1338 61.8333 54.4005 52.5 40.0005 52.5C25.6005 52.5 13.8672 61.8333 13.8672 73.3333C13.8672 74.7 12.7339 75.8333 11.3672 75.8333C10.0005 75.8333 8.86719 74.7 8.86719 73.3333C8.86719 59.1 22.8338 47.5 40.0005 47.5C57.1672 47.5 71.1338 59.1 71.1338 73.3333C71.1338 74.7 70.0005 75.8333 68.6338 75.8333Z" fill="white"/>
</svg>
